<svg width="48" height="48" viewBox="0 0 48 48" fill="none" xmlns="http://www.w3.org/2000/svg">
<path fill-rule="evenodd" clip-rule="evenodd" d="M24 2C11.8497 2 2 11.8497 2 24C2 36.1503 11.8497 46 24 46C36.1503 46 46 36.1503 46 24C46 11.8497 36.1503 2 24 2ZM24 14C22.8954 14 22 14.8954 22 16C22 17.1046 22.8954 18 24 18H24.02C25.1246 18 26.02 17.1046 26.02 16C26.02 14.8954 25.1246 14 24.02 14H24ZM26 24C26 22.8954 25.1046 22 24 22C22.8954 22 22 22.8954 22 24V32C22 33.1046 22.8954 34 24 34C25.1046 34 26 33.1046 26 32V24Z" fill="#2563EB"/>
</svg>
